<mxfile host="app.diagrams.net" modified="2023-06-13T07:52:36.515Z" agent="Mozilla/5.0 (Windows NT 10.0; Win64; x64; rv:109.0) Gecko/20100101 Firefox/113.0" etag="n15H9fyaFyuGkJjyudwa" version="21.3.8" type="github">
  <diagram name="Page-1" id="QEueSDJHl_8IlOvw4Woo">
    <mxGraphModel dx="1248" dy="1098" grid="1" gridSize="10" guides="1" tooltips="1" connect="1" arrows="1" fold="1" page="1" pageScale="1" pageWidth="2339" pageHeight="3300" math="0" shadow="0">
      <root>
        <mxCell id="0" />
        <mxCell id="1" parent="0" />
        <mxCell id="gcQVHDRGR5eR76LzJhw5-16" value="User Routes" style="swimlane;whiteSpace=wrap;html=1;fillColor=#B8B8B8;" vertex="1" parent="1">
          <mxGeometry x="10" y="70" width="280" height="270" as="geometry" />
        </mxCell>
        <mxCell id="gcQVHDRGR5eR76LzJhw5-17" value="[GET] /user" style="whiteSpace=wrap;html=1;" vertex="1" parent="gcQVHDRGR5eR76LzJhw5-16">
          <mxGeometry y="20" width="280" height="50" as="geometry" />
        </mxCell>
        <mxCell id="gcQVHDRGR5eR76LzJhw5-18" value="[GET] /user/:id" style="whiteSpace=wrap;html=1;" vertex="1" parent="gcQVHDRGR5eR76LzJhw5-16">
          <mxGeometry y="70" width="280" height="50" as="geometry" />
        </mxCell>
        <mxCell id="gcQVHDRGR5eR76LzJhw5-19" value="[POST] /user" style="whiteSpace=wrap;html=1;" vertex="1" parent="gcQVHDRGR5eR76LzJhw5-16">
          <mxGeometry y="120" width="280" height="50" as="geometry" />
        </mxCell>
        <mxCell id="gcQVHDRGR5eR76LzJhw5-20" value="[DELETE] /user/:id" style="whiteSpace=wrap;html=1;" vertex="1" parent="gcQVHDRGR5eR76LzJhw5-16">
          <mxGeometry y="170" width="280" height="50" as="geometry" />
        </mxCell>
        <mxCell id="gcQVHDRGR5eR76LzJhw5-21" value="[PATCH] /user/:id" style="whiteSpace=wrap;html=1;" vertex="1" parent="gcQVHDRGR5eR76LzJhw5-16">
          <mxGeometry y="220" width="280" height="50" as="geometry" />
        </mxCell>
        <mxCell id="gcQVHDRGR5eR76LzJhw5-24" value="User Contoller" style="swimlane;whiteSpace=wrap;html=1;fillColor=#B8B8B8;" vertex="1" parent="1">
          <mxGeometry x="340" y="70" width="280" height="270" as="geometry" />
        </mxCell>
        <mxCell id="gcQVHDRGR5eR76LzJhw5-25" value="getUsers()" style="whiteSpace=wrap;html=1;" vertex="1" parent="gcQVHDRGR5eR76LzJhw5-24">
          <mxGeometry y="20" width="280" height="50" as="geometry" />
        </mxCell>
        <mxCell id="gcQVHDRGR5eR76LzJhw5-26" value="getUser(@Param() id)" style="whiteSpace=wrap;html=1;" vertex="1" parent="gcQVHDRGR5eR76LzJhw5-24">
          <mxGeometry y="70" width="280" height="50" as="geometry" />
        </mxCell>
        <mxCell id="gcQVHDRGR5eR76LzJhw5-27" value="postUser(@Body() data: CreateUserDto)" style="whiteSpace=wrap;html=1;" vertex="1" parent="gcQVHDRGR5eR76LzJhw5-24">
          <mxGeometry y="120" width="280" height="50" as="geometry" />
        </mxCell>
        <mxCell id="gcQVHDRGR5eR76LzJhw5-28" value="deleteUser(@Param() id)" style="whiteSpace=wrap;html=1;" vertex="1" parent="gcQVHDRGR5eR76LzJhw5-24">
          <mxGeometry y="170" width="280" height="50" as="geometry" />
        </mxCell>
        <mxCell id="gcQVHDRGR5eR76LzJhw5-29" value="patchUser(@Param() id, @Body() data: UpdateUserDto)" style="whiteSpace=wrap;html=1;" vertex="1" parent="gcQVHDRGR5eR76LzJhw5-24">
          <mxGeometry y="220" width="280" height="50" as="geometry" />
        </mxCell>
        <mxCell id="gcQVHDRGR5eR76LzJhw5-30" style="edgeStyle=orthogonalEdgeStyle;rounded=0;orthogonalLoop=1;jettySize=auto;html=1;" edge="1" parent="1" source="gcQVHDRGR5eR76LzJhw5-17" target="gcQVHDRGR5eR76LzJhw5-25">
          <mxGeometry relative="1" as="geometry" />
        </mxCell>
        <mxCell id="gcQVHDRGR5eR76LzJhw5-31" style="edgeStyle=orthogonalEdgeStyle;rounded=0;orthogonalLoop=1;jettySize=auto;html=1;" edge="1" parent="1" source="gcQVHDRGR5eR76LzJhw5-18" target="gcQVHDRGR5eR76LzJhw5-26">
          <mxGeometry relative="1" as="geometry" />
        </mxCell>
        <mxCell id="gcQVHDRGR5eR76LzJhw5-32" style="edgeStyle=orthogonalEdgeStyle;rounded=0;orthogonalLoop=1;jettySize=auto;html=1;entryX=0;entryY=0.5;entryDx=0;entryDy=0;" edge="1" parent="1" source="gcQVHDRGR5eR76LzJhw5-19" target="gcQVHDRGR5eR76LzJhw5-27">
          <mxGeometry relative="1" as="geometry" />
        </mxCell>
        <mxCell id="gcQVHDRGR5eR76LzJhw5-33" style="edgeStyle=orthogonalEdgeStyle;rounded=0;orthogonalLoop=1;jettySize=auto;html=1;" edge="1" parent="1" source="gcQVHDRGR5eR76LzJhw5-20" target="gcQVHDRGR5eR76LzJhw5-28">
          <mxGeometry relative="1" as="geometry" />
        </mxCell>
        <mxCell id="gcQVHDRGR5eR76LzJhw5-34" style="edgeStyle=orthogonalEdgeStyle;rounded=0;orthogonalLoop=1;jettySize=auto;html=1;" edge="1" parent="1" source="gcQVHDRGR5eR76LzJhw5-21" target="gcQVHDRGR5eR76LzJhw5-29">
          <mxGeometry relative="1" as="geometry" />
        </mxCell>
        <mxCell id="gcQVHDRGR5eR76LzJhw5-35" value="Gallery Routes" style="swimlane;whiteSpace=wrap;html=1;fillColor=#B8B8B8;" vertex="1" parent="1">
          <mxGeometry x="50" y="870" width="280" height="270" as="geometry" />
        </mxCell>
        <mxCell id="gcQVHDRGR5eR76LzJhw5-36" value="[GET] /gallery" style="whiteSpace=wrap;html=1;" vertex="1" parent="gcQVHDRGR5eR76LzJhw5-35">
          <mxGeometry y="20" width="280" height="50" as="geometry" />
        </mxCell>
        <mxCell id="gcQVHDRGR5eR76LzJhw5-37" value="[GET] /photo/:id" style="whiteSpace=wrap;html=1;" vertex="1" parent="gcQVHDRGR5eR76LzJhw5-35">
          <mxGeometry y="70" width="280" height="50" as="geometry" />
        </mxCell>
        <mxCell id="gcQVHDRGR5eR76LzJhw5-38" value="[POST] /photo/upload" style="whiteSpace=wrap;html=1;" vertex="1" parent="gcQVHDRGR5eR76LzJhw5-35">
          <mxGeometry y="120" width="280" height="50" as="geometry" />
        </mxCell>
        <mxCell id="gcQVHDRGR5eR76LzJhw5-39" value="[DELETE] /photo/:id" style="whiteSpace=wrap;html=1;" vertex="1" parent="gcQVHDRGR5eR76LzJhw5-35">
          <mxGeometry y="170" width="280" height="50" as="geometry" />
        </mxCell>
        <mxCell id="gcQVHDRGR5eR76LzJhw5-40" value="[PATCH] /photo/:id" style="whiteSpace=wrap;html=1;" vertex="1" parent="gcQVHDRGR5eR76LzJhw5-35">
          <mxGeometry y="220" width="280" height="50" as="geometry" />
        </mxCell>
        <mxCell id="gcQVHDRGR5eR76LzJhw5-41" value="Gallery Contoller" style="swimlane;whiteSpace=wrap;html=1;fillColor=#B8B8B8;" vertex="1" parent="1">
          <mxGeometry x="380" y="870" width="280" height="270" as="geometry" />
        </mxCell>
        <mxCell id="gcQVHDRGR5eR76LzJhw5-42" value="getGallery()" style="whiteSpace=wrap;html=1;" vertex="1" parent="gcQVHDRGR5eR76LzJhw5-41">
          <mxGeometry y="20" width="280" height="50" as="geometry" />
        </mxCell>
        <mxCell id="gcQVHDRGR5eR76LzJhw5-43" value="getPhoto(@Param() id)" style="whiteSpace=wrap;html=1;" vertex="1" parent="gcQVHDRGR5eR76LzJhw5-41">
          <mxGeometry y="70" width="280" height="50" as="geometry" />
        </mxCell>
        <mxCell id="gcQVHDRGR5eR76LzJhw5-44" value="postPhoto(@Body() data: CreatePhotoDto)" style="whiteSpace=wrap;html=1;" vertex="1" parent="gcQVHDRGR5eR76LzJhw5-41">
          <mxGeometry y="120" width="280" height="50" as="geometry" />
        </mxCell>
        <mxCell id="gcQVHDRGR5eR76LzJhw5-45" value="deletePhoto(@Param() id)" style="whiteSpace=wrap;html=1;" vertex="1" parent="gcQVHDRGR5eR76LzJhw5-41">
          <mxGeometry y="170" width="280" height="50" as="geometry" />
        </mxCell>
        <mxCell id="gcQVHDRGR5eR76LzJhw5-46" value="patchPhoto(id: number, data: UpdatePhotoDto)" style="whiteSpace=wrap;html=1;" vertex="1" parent="gcQVHDRGR5eR76LzJhw5-41">
          <mxGeometry y="220" width="280" height="50" as="geometry" />
        </mxCell>
        <mxCell id="gcQVHDRGR5eR76LzJhw5-47" style="edgeStyle=orthogonalEdgeStyle;rounded=0;orthogonalLoop=1;jettySize=auto;html=1;" edge="1" parent="1" source="gcQVHDRGR5eR76LzJhw5-36" target="gcQVHDRGR5eR76LzJhw5-42">
          <mxGeometry relative="1" as="geometry">
            <Array as="points">
              <mxPoint x="330" y="900" />
              <mxPoint x="330" y="900" />
            </Array>
          </mxGeometry>
        </mxCell>
        <mxCell id="gcQVHDRGR5eR76LzJhw5-48" style="edgeStyle=orthogonalEdgeStyle;rounded=0;orthogonalLoop=1;jettySize=auto;html=1;" edge="1" parent="1" source="gcQVHDRGR5eR76LzJhw5-37" target="gcQVHDRGR5eR76LzJhw5-43">
          <mxGeometry relative="1" as="geometry" />
        </mxCell>
        <mxCell id="gcQVHDRGR5eR76LzJhw5-49" style="edgeStyle=orthogonalEdgeStyle;rounded=0;orthogonalLoop=1;jettySize=auto;html=1;entryX=0;entryY=0.5;entryDx=0;entryDy=0;" edge="1" parent="1" source="gcQVHDRGR5eR76LzJhw5-38" target="gcQVHDRGR5eR76LzJhw5-44">
          <mxGeometry relative="1" as="geometry" />
        </mxCell>
        <mxCell id="gcQVHDRGR5eR76LzJhw5-50" style="edgeStyle=orthogonalEdgeStyle;rounded=0;orthogonalLoop=1;jettySize=auto;html=1;" edge="1" parent="1" source="gcQVHDRGR5eR76LzJhw5-39" target="gcQVHDRGR5eR76LzJhw5-45">
          <mxGeometry relative="1" as="geometry" />
        </mxCell>
        <mxCell id="gcQVHDRGR5eR76LzJhw5-51" style="edgeStyle=orthogonalEdgeStyle;rounded=0;orthogonalLoop=1;jettySize=auto;html=1;" edge="1" parent="1" source="gcQVHDRGR5eR76LzJhw5-40" target="gcQVHDRGR5eR76LzJhw5-46">
          <mxGeometry relative="1" as="geometry" />
        </mxCell>
        <mxCell id="gcQVHDRGR5eR76LzJhw5-53" style="edgeStyle=orthogonalEdgeStyle;rounded=0;orthogonalLoop=1;jettySize=auto;html=1;entryX=0.5;entryY=1;entryDx=0;entryDy=0;" edge="1" parent="1" target="gcQVHDRGR5eR76LzJhw5-24">
          <mxGeometry relative="1" as="geometry">
            <mxPoint x="480" y="420" as="sourcePoint" />
          </mxGeometry>
        </mxCell>
        <mxCell id="gcQVHDRGR5eR76LzJhw5-54" value="User Service" style="swimlane;whiteSpace=wrap;html=1;fillColor=#B8B8B8;" vertex="1" parent="1">
          <mxGeometry x="340" y="420" width="280" height="270" as="geometry" />
        </mxCell>
        <mxCell id="gcQVHDRGR5eR76LzJhw5-55" value="getUsers()" style="whiteSpace=wrap;html=1;" vertex="1" parent="gcQVHDRGR5eR76LzJhw5-54">
          <mxGeometry y="20" width="280" height="50" as="geometry" />
        </mxCell>
        <mxCell id="gcQVHDRGR5eR76LzJhw5-56" value="getUser(id: number)" style="whiteSpace=wrap;html=1;" vertex="1" parent="gcQVHDRGR5eR76LzJhw5-54">
          <mxGeometry y="70" width="280" height="50" as="geometry" />
        </mxCell>
        <mxCell id="gcQVHDRGR5eR76LzJhw5-57" value="postUser(data: CreateUserDto)" style="whiteSpace=wrap;html=1;" vertex="1" parent="gcQVHDRGR5eR76LzJhw5-54">
          <mxGeometry y="120" width="280" height="50" as="geometry" />
        </mxCell>
        <mxCell id="gcQVHDRGR5eR76LzJhw5-58" value="deleteUser(id: number)" style="whiteSpace=wrap;html=1;" vertex="1" parent="gcQVHDRGR5eR76LzJhw5-54">
          <mxGeometry y="170" width="280" height="50" as="geometry" />
        </mxCell>
        <mxCell id="gcQVHDRGR5eR76LzJhw5-59" value="patchUser(id: number, data: UpdateUserDto)" style="whiteSpace=wrap;html=1;" vertex="1" parent="gcQVHDRGR5eR76LzJhw5-54">
          <mxGeometry y="220" width="280" height="50" as="geometry" />
        </mxCell>
        <mxCell id="gcQVHDRGR5eR76LzJhw5-61" style="edgeStyle=orthogonalEdgeStyle;rounded=0;orthogonalLoop=1;jettySize=auto;html=1;entryX=-0.004;entryY=0.056;entryDx=0;entryDy=0;entryPerimeter=0;" edge="1" parent="1" source="gcQVHDRGR5eR76LzJhw5-60" target="gcQVHDRGR5eR76LzJhw5-54">
          <mxGeometry relative="1" as="geometry" />
        </mxCell>
        <mxCell id="gcQVHDRGR5eR76LzJhw5-60" value="UserRepository" style="rounded=0;whiteSpace=wrap;html=1;fillColor=#B5B5B5;" vertex="1" parent="1">
          <mxGeometry x="30" y="420" width="200" height="30" as="geometry" />
        </mxCell>
        <mxCell id="gcQVHDRGR5eR76LzJhw5-63" style="edgeStyle=orthogonalEdgeStyle;rounded=0;orthogonalLoop=1;jettySize=auto;html=1;exitX=0.5;exitY=1;exitDx=0;exitDy=0;entryX=0.5;entryY=0;entryDx=0;entryDy=0;" edge="1" parent="1" source="gcQVHDRGR5eR76LzJhw5-62" target="gcQVHDRGR5eR76LzJhw5-41">
          <mxGeometry relative="1" as="geometry" />
        </mxCell>
        <mxCell id="gcQVHDRGR5eR76LzJhw5-62" value="AuthGuard" style="rounded=0;whiteSpace=wrap;html=1;fillColor=#B0B0B0;" vertex="1" parent="1">
          <mxGeometry x="380" y="820" width="280" height="30" as="geometry" />
        </mxCell>
        <mxCell id="gcQVHDRGR5eR76LzJhw5-72" style="edgeStyle=orthogonalEdgeStyle;rounded=0;orthogonalLoop=1;jettySize=auto;html=1;entryX=0.5;entryY=1;entryDx=0;entryDy=0;" edge="1" parent="1" source="gcQVHDRGR5eR76LzJhw5-64" target="gcQVHDRGR5eR76LzJhw5-41">
          <mxGeometry relative="1" as="geometry" />
        </mxCell>
        <mxCell id="gcQVHDRGR5eR76LzJhw5-64" value="Gallery Service" style="swimlane;whiteSpace=wrap;html=1;fillColor=#B8B8B8;" vertex="1" parent="1">
          <mxGeometry x="380" y="1200" width="280" height="270" as="geometry" />
        </mxCell>
        <mxCell id="gcQVHDRGR5eR76LzJhw5-65" value="getGallery()" style="whiteSpace=wrap;html=1;" vertex="1" parent="gcQVHDRGR5eR76LzJhw5-64">
          <mxGeometry y="20" width="280" height="50" as="geometry" />
        </mxCell>
        <mxCell id="gcQVHDRGR5eR76LzJhw5-66" value="getPhoto(id: number)" style="whiteSpace=wrap;html=1;" vertex="1" parent="gcQVHDRGR5eR76LzJhw5-64">
          <mxGeometry y="70" width="280" height="50" as="geometry" />
        </mxCell>
        <mxCell id="gcQVHDRGR5eR76LzJhw5-67" value="postPhoto(data: CreatePhotoDto)" style="whiteSpace=wrap;html=1;" vertex="1" parent="gcQVHDRGR5eR76LzJhw5-64">
          <mxGeometry y="120" width="280" height="50" as="geometry" />
        </mxCell>
        <mxCell id="gcQVHDRGR5eR76LzJhw5-68" value="deletePhoto(id: number)" style="whiteSpace=wrap;html=1;" vertex="1" parent="gcQVHDRGR5eR76LzJhw5-64">
          <mxGeometry y="170" width="280" height="50" as="geometry" />
        </mxCell>
        <mxCell id="gcQVHDRGR5eR76LzJhw5-69" value="patchUser(id: number, data: UpdatePhotoDto)" style="whiteSpace=wrap;html=1;" vertex="1" parent="gcQVHDRGR5eR76LzJhw5-64">
          <mxGeometry y="220" width="280" height="50" as="geometry" />
        </mxCell>
        <mxCell id="gcQVHDRGR5eR76LzJhw5-70" style="edgeStyle=orthogonalEdgeStyle;rounded=0;orthogonalLoop=1;jettySize=auto;html=1;entryX=-0.004;entryY=0.056;entryDx=0;entryDy=0;entryPerimeter=0;" edge="1" parent="1" source="gcQVHDRGR5eR76LzJhw5-71" target="gcQVHDRGR5eR76LzJhw5-64">
          <mxGeometry relative="1" as="geometry" />
        </mxCell>
        <mxCell id="gcQVHDRGR5eR76LzJhw5-71" value="galleryRepository" style="rounded=0;whiteSpace=wrap;html=1;fillColor=#B5B5B5;" vertex="1" parent="1">
          <mxGeometry x="70" y="1200" width="200" height="30" as="geometry" />
        </mxCell>
        <mxCell id="gcQVHDRGR5eR76LzJhw5-73" value="" style="strokeWidth=2;html=1;shape=mxgraph.flowchart.annotation_2;align=left;labelPosition=right;pointerEvents=1;rotation=-180;" vertex="1" parent="1">
          <mxGeometry x="630" y="200" width="50" height="120" as="geometry" />
        </mxCell>
        <mxCell id="gcQVHDRGR5eR76LzJhw5-74" value="AuthGuard" style="rounded=0;whiteSpace=wrap;html=1;fillColor=#B5B5B5;" vertex="1" parent="1">
          <mxGeometry x="680" y="245" width="200" height="30" as="geometry" />
        </mxCell>
      </root>
    </mxGraphModel>
  </diagram>
</mxfile>
